<?xml version="1.0" encoding="utf-8"?>
<!-- Generator: Adobe Illustrator 24.1.3, SVG Export Plug-In . SVG Version: 6.00 Build 0)  -->
<svg version="1.1" id="Calque_1" xmlns="http://www.w3.org/2000/svg" xmlns:xlink="http://www.w3.org/1999/xlink" x="0px" y="0px"
	 viewBox="0 0 2964 3011" style="enable-background:new 0 0 2964 3011;" xml:space="preserve">
<style type="text/css">
	.st0{fill:#FFFFFF;}
	.st1{clip-path:url(#SVGID_2_);}
	.st2{clip-path:url(#SVGID_4_);}
</style>
<g>
	<path d="M2254.13,1531.46c-0.17,540.06-557.52,895.92-1053.42,667.22c-87.82-40.41-412.82,136.97-439.93,108.94
		c-21.71-22.45,137.72-363.33,90.81-455.14c-136.22-266.7-87.57-598.6,108.19-812.16c214.06-233.53,527.92-310.62,815.24-200.18
		C2062.69,950.58,2254.21,1227.02,2254.13,1531.46"/>
	<path class="st0" d="M1680.77,1521.11c1.33-64.62,49.23-112.27,111.44-110.94c63.79,1.42,109.44,49.32,108.36,113.77
		c-1.08,61.87-51.98,114.01-111.02,113.68C1732.91,1637.3,1679.52,1580.08,1680.77,1521.11"/>
	<path class="st0" d="M1294.31,1518.51c-1.5,66.2-59.13,125.41-114.76,117.34c-61.46-8.97-102.37-45.07-104.37-111.68
		c-1.91-67.11,51.48-118.09,119.17-112.02C1261.46,1418.22,1290.32,1462.05,1294.31,1518.51"/>
	<path class="st0" d="M1491.13,1410.66c62.12,2.16,108.78,53.4,106.45,116.85c-2,56.14-55.64,109.36-108.28,107.45
		c-59.88-2.16-112.85-56.8-111.27-114.85C1379.78,1455.74,1428.67,1408.51,1491.13,1410.66"/>
</g>
<g>
	<defs>
		<path id="SVGID_1_" d="M2062.15,2236.01c-248.49,196.18-533.57,254.74-829.71,143.37c-163-61.29-430.45-33.76-610.99,118.76
			c-20.29,18.37-39.42,37.42-57.13,56.88c491.32,453.49,1279.79,524.17,1846.21,47.57c81.25-68.36,78.26-108.45,6.65-182.55
			c-52.56-54.46-112.44-112.51-172.23-172.22c-34.84-34.93-63.2-52.81-93.64-52.81C2124.94,2195.02,2097.08,2208.49,2062.15,2236.01
			"/>
	</defs>
	<use xlink:href="#SVGID_1_"  style="overflow:visible;"/>
	<clipPath id="SVGID_2_">
		<use xlink:href="#SVGID_1_"  style="overflow:visible;"/>
	</clipPath>
	
		<rect x="523.58" y="2097.25" transform="matrix(0.9946 -0.1039 0.1039 0.9946 -265.8408 173.1193)" class="st1" width="2008.92" height="1079.73"/>
</g>
<g>
	<defs>
		<path id="SVGID_3_" d="M757.16,358.04c-112.6,71.1-212.31,157.92-297.56,256.47C164.13,955.73,42.55,1436.91,162.47,1885.4
			c13.06,48.98,28.61,96.47,46.07,142.46c79.75,209.24,203.42,386.54,355.77,527.17c17.71-19.46,36.84-38.51,57.13-56.88
			c-6.24,5.24-12.39,10.64-18.38,16.13c57.38-115.34,93.81-253.65,103.95-384.29c8.65-111.69-1.83-217.8-34.93-299.56
			c-140.54-346.7-24.45-742.23,263.71-987.39c193.85-164.82,451.41-233.1,698.15-201.42c104.95,13.48,207.82,44.91,303.21,94.89
			c27.61,14.4,49.56,28.11,71.44,41.67c37.01,18.46,72.35,37.92,105.7,58.29c18.55,8.49,39.59,17.14,64.2,26.28
			c84.16,31.19,233.44-212.81,244.33-227.29c60.63-81.5,63.29-111.6-10.31-173.56C2155.12,245.44,1839.44,135,1519.6,135
			C1258.47,135,994.51,208.51,757.16,358.04"/>
	</defs>
	<use xlink:href="#SVGID_3_"  style="overflow:visible;"/>
	<clipPath id="SVGID_4_">
		<use xlink:href="#SVGID_3_"  style="overflow:visible;"/>
	</clipPath>
	<polygon class="st2" points="-1034.57,1896.33 707.65,-952.59 3563.23,793.7 1821.01,3642.63 	"/>
</g>
</svg>
