<?xml version="1.0" encoding="utf-8"?>
<!-- Generator: Adobe Illustrator 24.1.3, SVG Export Plug-In . SVG Version: 6.00 Build 0)  -->
<svg version="1.1" id="Calque_1" xmlns="http://www.w3.org/2000/svg" xmlns:xlink="http://www.w3.org/1999/xlink" x="0px" y="0px"
	 viewBox="0 0 2941 782" style="enable-background:new 0 0 2941 782;" xml:space="preserve">
<style type="text/css">
	.st0{fill:#003366;}
	.st1{font-family:'Poppins-Bold';}
	.st2{font-size:399.3762px;}
	.st3{fill:#43BEED;}
	.st4{fill:#FFFFFF;}
	.st5{clip-path:url(#SVGID_2_);fill:url(#SVGID_3_);}
	.st6{clip-path:url(#SVGID_5_);fill:url(#SVGID_6_);}
</style>
<text transform="matrix(1 0 0 1 691.3514 542.3475)" class="st0 st1 st2">ChatBot.tn</text>
<g>
	<path class="st3" d="M549.05,386.35c-0.04,126.77-130.87,210.3-247.28,156.62c-20.61-9.49-96.9,32.15-103.27,25.57
		c-5.1-5.27,32.33-85.29,21.32-106.84c-31.98-62.61-20.56-140.51,25.4-190.64c50.25-54.82,123.92-72.91,191.37-46.99
		C504.11,250,549.07,314.89,549.05,386.35"/>
	<path class="st4" d="M414.46,383.92c0.31-15.17,11.56-26.35,26.16-26.04c14.97,0.33,25.69,11.58,25.44,26.71
		c-0.25,14.52-12.2,26.76-26.06,26.68C426.7,411.2,414.17,397.77,414.46,383.92"/>
	<path class="st4" d="M323.75,383.31c-0.35,15.54-13.88,29.44-26.94,27.54c-14.43-2.11-24.03-10.58-24.5-26.22
		c-0.45-15.75,12.08-27.72,27.97-26.3C316.04,359.77,322.81,370.06,323.75,383.31"/>
	<path class="st4" d="M369.95,358c14.58,0.51,25.53,12.53,24.99,27.43c-0.47,13.18-13.06,25.67-25.42,25.22
		c-14.06-0.51-26.49-13.33-26.12-26.96C343.81,368.58,355.29,357.49,369.95,358"/>
</g>
<g>
	<defs>
		<path id="SVGID_1_" d="M503.99,551.74c-58.33,46.05-125.25,59.8-194.76,33.65c-38.26-14.39-101.04-7.93-143.42,27.88
			c-4.76,4.31-9.25,8.78-13.41,13.35c115.33,106.45,300.41,123.04,433.37,11.17c19.07-16.05,18.37-25.46,1.56-42.85
			c-12.34-12.78-26.39-26.41-40.43-40.43c-8.18-8.2-14.84-12.4-21.98-12.4C518.73,542.11,512.19,545.28,503.99,551.74"/>
	</defs>
	<clipPath id="SVGID_2_">
		<use xlink:href="#SVGID_1_"  style="overflow:visible;"/>
	</clipPath>
	
		<linearGradient id="SVGID_3_" gradientUnits="userSpaceOnUse" x1="830.765" y1="900.4457" x2="850.2862" y2="900.4457" gradientTransform="matrix(22.8049 -2.3833 -2.3833 -22.8049 -16711.6309 23190.8008)">
		<stop  offset="0" style="stop-color:#41519C"/>
		<stop  offset="0.5154" style="stop-color:#36A8CE"/>
		<stop  offset="1" style="stop-color:#57B9AB"/>
	</linearGradient>
	<polygon class="st5" points="130.93,544.36 599.95,495.34 626.29,747.42 157.28,796.44 	"/>
</g>
<g>
	<defs>
		<path id="SVGID_4_" d="M197.66,110.91c-26.43,16.69-49.84,37.07-69.85,60.2c-69.36,80.1-97.9,193.05-69.75,298.32
			c3.06,11.5,6.72,22.65,10.81,33.44c18.72,49.12,47.75,90.73,83.51,123.75c4.16-4.57,8.65-9.04,13.41-13.35
			c-1.46,1.23-2.91,2.5-4.31,3.79c13.47-27.08,22.02-59.54,24.4-90.21c2.03-26.22-0.43-51.13-8.2-70.32
			c-32.99-81.38-5.74-174.23,61.9-231.78c45.5-38.69,105.96-54.72,163.88-47.28c24.64,3.16,48.78,10.54,71.17,22.27
			c6.48,3.38,11.63,6.6,16.77,9.78c8.69,4.33,16.98,8.9,24.81,13.68c4.35,1.99,9.29,4.02,15.07,6.17
			c19.76,7.32,54.8-49.95,57.35-53.35c14.23-19.13,14.86-26.2-2.42-40.74c-60.42-50.81-134.52-76.74-209.6-76.74
			C315.33,58.55,253.37,75.81,197.66,110.91"/>
	</defs>
	<clipPath id="SVGID_5_">
		<use xlink:href="#SVGID_4_"  style="overflow:visible;"/>
	</clipPath>
	
		<linearGradient id="SVGID_6_" gradientUnits="userSpaceOnUse" x1="832.993" y1="945.3985" x2="852.5143" y2="945.3985" gradientTransform="matrix(17.3516 -28.3737 -28.3737 -17.3516 12516.2881 40661.7422)">
		<stop  offset="0" style="stop-color:#35A7DF"/>
		<stop  offset="0.0548" style="stop-color:#3988C7"/>
		<stop  offset="0.1192" style="stop-color:#3C69AF"/>
		<stop  offset="0.1742" style="stop-color:#3E57A1"/>
		<stop  offset="0.2131" style="stop-color:#3F509C"/>
		<stop  offset="0.4648" style="stop-color:#604895"/>
		<stop  offset="1" style="stop-color:#C44791"/>
	</linearGradient>
	<polygon class="st6" points="-222.93,472 186.04,-196.74 856.35,213.17 447.38,881.92 	"/>
</g>
</svg>
